# xmcd
# 
# Track frame offsets:
#     150
#     23358
#     41522
#     57557
#     70171
#     84668
#     95777
#     111566
#     125170
#     140677
#     152718
#     169482
#     178422
#     191284
#     216324
# 
# Disc length: 3091
# 
# Revision: 0
# Processed by: cddbd v1.5.2PL0 Copyright (c) Steve Scherf et al.
# Submitted via: fre:ac v1.0.17
# 
DISCID=e70c110f
DTITLE=Jessie Mae Hemphill - Get Right Blues
DYEAR=2003
DGENRE=Blues
TTITLE0=Streamline Train
TTITLE1=Shake Your Body (Shake It,Baby )
TTITLE2=Go Back to Your Used to Be
TTITLE3=Take Me Home With You,Baby
TTITLE4=Baby ,Please Don't Go
TTITLE5=Lord,Help the Poor and Needy
TTITLE6=Cowgirl Blues
TTITLE7=Little Rooster Reel
TTITLE8=He's a Mighty Good Leader
TTITLE9=All Night Boogie (Jessie Boogie )
TTITLE10=Loving In the Moonlight
TTITLE11=Get Right, Church
TTITLE12=Jessie Love Song (Tell Me You Love Me )
TTITLE13=Honey Bee
TTITLE14=Jesus Will Fix It for You
EXTD=1979 - 1985 
EXTT0=
EXTT1=
EXTT2=
EXTT3=
EXTT4=
EXTT5=
EXTT6=
EXTT7=
EXTT8=
EXTT9=
EXTT10=
EXTT11=
EXTT12=
EXTT13=
EXTT14=
PLAYORDER=
